<?xml version="1.0" encoding="UTF-8"?>
<!DOCTYPE svg PUBLIC "-//W3C//DTD SVG 1.1//EN" "http://www.w3.org/Graphics/SVG/1.1/DTD/svg11.dtd">
<svg xmlns="http://www.w3.org/2000/svg" xmlns:xlink="http://www.w3.org/1999/xlink" version="1.1" id="Layer_1" x="0px" y="0px" viewBox="0 0 270.1 114.9" enable-background="new 0 0 270.1 114.9" xml:space="preserve">
<path fill="#D2232A" d="M240.4,5.1c-8.1-1.2-15.8,1.3-21.5,6.3c4.7-2.3,10.2-3.3,15.8-2.4c14.5,2.2,24.5,15.8,22.3,30.3  c-1,6.5-4.2,12.1-8.8,16.1c7.5-3.7,13.2-10.9,14.6-19.9C264.9,20.9,254.9,7.4,240.4,5.1z"/>
<g>
	<path fill="#193888" d="M30,62C14.9,62,4.2,51,4.2,35.5c0-16.3,11.5-29,26.8-29c5.3,0,11.4,1.5,15.2,2.7c0.3-1.3,0.7-4.3,1.2-5.3   c0.2-0.5,0.5-0.8,0.8-0.8c0.4,0,0.7,0.3,0.7,0.8c0,0.7-0.8,7.8-0.8,11.4c0,3.8,0.4,10.8,0.4,11.6c0,0.8-0.3,1.2-0.7,1.2   c-0.5,0-0.7-0.3-0.8-1.1c-0.8-2.8-1.3-9.5-1.3-11.2C42.3,13,36.4,9,28.6,9C18,9,9.3,16.2,9.3,29.6C9.3,45.1,19.5,59,33.6,59   c9.7,0,13.2-6.5,14.4-6.5c0.3,0,0.7,0.3,0.7,0.6c0,0.3-0.2,0.6-0.3,0.8C46.8,56.3,40,62,30,62z"/>
	<path fill="#193888" d="M68.8,56.6c-2.1,1.7-6.2,5-10.4,5c-4.4,0-7.4-3.8-7.4-8.1c0-6.2,5.5-9,10.3-9c3,0,6.3,1.3,7.6,1.8   c0-6.6-0.1-10.6-5.3-10.6c-4.9,0-8.3,2.8-9.8,2.8c-0.4,0-0.8-0.3-0.8-0.8c0-1.6,8-5.6,12.5-5.6c5.8,0,8.6,2.4,8.6,8   c0,4.7-0.1,11.2-0.1,13c0,2.5,0,4.6,1.3,4.6c2,0,4.1-2.6,4.8-2.6c0.3,0,0.5,0.3,0.5,0.6c0,1.3-4.7,5.9-9.6,5.9c-1.2,0-2-0.1-2-1.4   V56.6z M68.8,48c-1.9-0.8-3.8-1.6-6.3-1.6c-4.4,0-6.4,2.4-6.4,6.3c0,3.2,1.8,5.7,5.2,5.7c3.3,0,5.8-2.3,7.6-3.9V48z"/>
	<path fill="#193888" d="M96.9,76.6c-1,0-5.1-0.5-11.2-0.5c-4,0-6.8,0.5-7.4,0.5c-0.4,0-0.9-0.1-0.9-0.6s0.3-0.8,0.8-0.8   c1.3-0.4,3.2-0.8,4.8-1c0.2-3.7,0.3-12.7,0.3-18.3c0-5.8-0.1-18.4-0.3-20.6c-0.7,0-4.6,0.2-5.6,0.2c-0.4,0-0.8-0.2-0.8-0.6   c0-1.1,0.8-0.8,6.6-2.2c2.8-0.7,3.7-1.1,4.4-1.1c0.7,0,0.8,0.5,0.8,1.1c0,0.8,0,3.4-0.1,4.8c2.2-1.9,5.8-5.4,11.3-5.4   c7.3,0,9.9,7.9,9.9,14c0,8.7-6.4,15.5-12.9,15.5c-4.5,0-6.6-2-8.3-3.3c0,3.5,0.1,12.7,0.3,15.9c2.6,0.3,6.2,0.6,8.4,1   c0.6,0.1,0.8,0.3,0.8,0.8S97.4,76.6,96.9,76.6z M88.3,55.3c1.9,2,4.8,4.5,8.3,4.5c5.3,0,7.2-5.8,7.2-11.9c0-4.4-1-12.5-7.2-12.5   c-4.3,0-6.8,3-8.3,4.5V55.3z"/>
	<path fill="#193888" d="M119.6,60.6c-4,0-6.8,0.5-7.4,0.5c-0.4,0-0.9-0.1-0.9-0.6c0-0.5,0.3-0.8,0.8-0.8c1.3-0.4,3.2-0.8,4.8-1   c0.2-2.2,0.3-8.3,0.3-10.8c0-2.4-0.1-10.3-0.2-12.5c-1.4,0-3.8,0.2-5.5,0.2c-0.5,0-0.7-0.3-0.7-0.6c0-0.9,1.9-1,5.2-1.8   c3.1-0.8,5.3-1.5,5.8-1.5c0.5,0,0.7,0.3,0.7,1.1c0,0.7-0.1,1.7-0.1,2.6c-0.1,2.3-0.2,9.9-0.2,12.5c0,2.5,0.1,8.6,0.3,10.8   c1.6,0.3,3.4,0.6,4.7,1c0.6,0.1,0.8,0.3,0.8,0.8c0,0.5-0.5,0.6-0.9,0.6C126.4,61.1,123.6,60.6,119.6,60.6z M119,28   c-2.1,0-3.8-1.8-3.8-3.8c0-2.1,1.8-3.8,3.8-3.8c2.1,0,3.8,1.8,3.8,3.8C122.9,26.3,121.1,28,119,28z"/>
	<path fill="#193888" d="M148.7,35.6c-3.2-0.2-6.8-0.7-10.8-0.7c0,2.1-0.3,7.2-0.3,10.2c0,3.1,0.1,7,0.2,9.4   c0.1,1.9,0.8,3.3,4.3,3.3c3.7,0,5.2-3.2,6.3-3.2c0.5,0,0.8,0.3,0.8,0.8c0,1.7-4.7,6.1-9.5,6.1c-5.8,0-7-3.6-7-9.2   c0-4.7,0.3-15.4,0.3-17.4c-2.4,0-4.2,0.2-6.4,0.5v-2.9c1.2,0.2,2.2,0.3,3.2,0.3c1,0.1,2.1,0.2,3.3,0.2V17.2h5.6   c-0.3,5.4-0.5,13.1-0.5,15.9c3.8,0,7.7-0.2,10.8-0.6V35.6z"/>
	<path fill="#193888" d="M168.9,56.6c-2.1,1.7-6.2,5-10.4,5c-4.4,0-7.4-3.8-7.4-8.1c0-6.2,5.5-9,10.3-9c3,0,6.3,1.3,7.6,1.8   c0-6.6-0.1-10.6-5.3-10.6c-4.9,0-8.3,2.8-9.8,2.8c-0.4,0-0.8-0.3-0.8-0.8c0-1.6,8-5.6,12.5-5.6c5.8,0,8.6,2.4,8.6,8   c0,4.7-0.1,11.2-0.1,13c0,2.5,0,4.6,1.3,4.6c2,0,4.1-2.6,4.8-2.6c0.3,0,0.5,0.3,0.5,0.6c0,1.3-4.7,5.9-9.6,5.9c-1.2,0-2-0.1-2-1.4   V56.6z M168.9,48c-1.9-0.8-3.8-1.6-6.3-1.6c-4.4,0-6.4,2.4-6.4,6.3c0,3.2,1.8,5.7,5.2,5.7c3.3,0,5.8-2.3,7.6-3.9V48z"/>
	<path fill="#193888" d="M195.9,60.5c0,0.5-0.5,0.6-0.9,0.6c-0.7,0-3.4-0.5-7.4-0.5s-6.8,0.5-7.4,0.5c-0.4,0-0.9-0.1-0.9-0.6   c0-0.5,0.3-0.8,0.8-0.8c1.3-0.4,3.2-0.8,4.8-1c0.2-8.7,0.3-20.3,0.3-27.2c0-6.4-0.3-8.6-0.3-14.6c0-1.8-0.4-3.8-1.7-3.8   c-1.7,0-3,1.6-3.8,1.6c-0.4,0-0.6-0.3-0.6-0.8c0-1.3,6.9-5.5,10.4-5.5c1.5,0,1.5,1.3,1.5,2.6c0,4.3-0.4,14.1-0.4,20.5   c0,6.8,0,18.5,0.2,27.2c1.6,0.3,3.5,0.6,4.8,1C195.7,59.8,195.9,60,195.9,60.5z"/>
	<path fill="#193888" d="M232.4,57.8c-14.5-2.2-24.5-15.8-22.3-30.3c1-6.5,4.2-12.1,8.8-16.1c-7.5,3.7-13.2,10.9-14.6,19.9   c-2.2,14.5,7.8,28.1,22.3,30.3c8,1.2,15.8-1.3,21.5-6.3C243.5,57.7,238,58.6,232.4,57.8z"/>
	<polygon fill="#193888" points="234.4,52.4 249,64.1 248.1,55.4  "/>
</g>
<g>
	<g>
		<path fill="#193888" d="M259.3,58c0.8,0,1.5,0.2,2.3,0.6c0.7,0.4,1.3,1,1.7,1.7c0.4,0.7,0.6,1.5,0.6,2.3c0,0.8-0.2,1.6-0.6,2.3    c-0.4,0.7-1,1.3-1.7,1.7c-0.7,0.4-1.5,0.6-2.3,0.6c-0.8,0-1.6-0.2-2.3-0.6c-0.7-0.4-1.3-1-1.7-1.7c-0.4-0.7-0.6-1.5-0.6-2.3    c0-0.8,0.2-1.6,0.6-2.3c0.4-0.7,1-1.3,1.7-1.7C257.8,58.2,258.5,58,259.3,58z M259.3,58.6c-0.7,0-1.3,0.2-2,0.5    c-0.6,0.3-1.1,0.8-1.5,1.5c-0.4,0.6-0.5,1.3-0.5,2c0,0.7,0.2,1.4,0.5,2c0.4,0.6,0.9,1.1,1.5,1.5c0.6,0.4,1.3,0.5,2,0.5    c0.7,0,1.4-0.2,2-0.5c0.6-0.4,1.1-0.9,1.5-1.5c0.4-0.6,0.5-1.3,0.5-2c0-0.7-0.2-1.4-0.5-2c-0.4-0.6-0.9-1.1-1.5-1.5    C260.6,58.8,260,58.6,259.3,58.6z M256.8,60h2.4c0.8,0,1.3,0.1,1.7,0.3c0.4,0.3,0.7,0.7,0.7,1.1c0,0.3-0.1,0.6-0.3,0.8    c-0.2,0.2-0.5,0.4-0.9,0.5l0.9,1.6c0.1,0.2,0.3,0.4,0.4,0.5c0.1,0.1,0.2,0.1,0.3,0.1v0.2h-1.6l-1.3-2.4h-0.3v1.3    c0,0.4,0,0.6,0.1,0.7c0.1,0.1,0.3,0.2,0.6,0.2v0.2h-2.8V65c0.3,0,0.4,0,0.5-0.1c0.1-0.1,0.2-0.4,0.2-0.8V61c0-0.4,0-0.6-0.1-0.7    c-0.1-0.1-0.2-0.2-0.5-0.2V60z M258.7,62.5c0.1,0,0.3,0,0.4,0c0.3,0,0.5-0.1,0.7-0.3c0.2-0.2,0.3-0.5,0.3-0.9    c0-0.4-0.1-0.6-0.3-0.8c-0.2-0.2-0.5-0.3-0.9-0.3h-0.2V62.5z"/>
	</g>
</g>
<g>
	<path fill="#D2232A" d="M19.6,103.4V81.6h6.9c2.1,0,3.7,0.6,5,1.7c1.2,1.1,1.9,2.6,1.9,4.5c0,1.3-0.3,2.4-1,3.4   c-0.6,1-1.5,1.7-2.6,2.1c-1.1,0.4-2.7,0.7-4.7,0.7h-2.3v9.4H19.6z M26,84.3h-3.2v6.8h3.4c1.3,0,2.2-0.3,2.9-0.9   c0.7-0.6,1-1.5,1-2.6C30.2,85.5,28.8,84.3,26,84.3z"/>
	<path fill="#D2232A" d="M44.7,94.8v6.2c0,0.5,0.2,0.7,0.5,0.7c0.4,0,0.9-0.2,1.7-0.7v1.6c-0.6,0.4-1.2,0.7-1.6,0.8   c-0.4,0.1-0.8,0.2-1.2,0.2c-1.2,0-1.9-0.5-2.2-1.4c-1.2,0.9-2.5,1.4-3.9,1.4c-1,0-1.8-0.3-2.5-1c-0.7-0.7-1-1.5-1-2.5   c0-0.9,0.3-1.7,1-2.4c0.7-0.7,1.6-1.3,2.8-1.7l3.6-1.3V94c0-1.7-0.9-2.6-2.6-2.6c-1.5,0-3.1,0.8-4.5,2.4v-3.1c1.1-1.3,2.7-2,4.8-2   c1.5,0,2.8,0.4,3.7,1.2c0.3,0.3,0.6,0.6,0.8,1.1c0.2,0.4,0.4,0.9,0.5,1.3C44.7,92.7,44.7,93.5,44.7,94.8z M41.9,100.6v-4.3L40,97   c-1,0.4-1.7,0.8-2.1,1.2c-0.4,0.4-0.6,0.9-0.6,1.5c0,0.6,0.2,1.1,0.6,1.5c0.4,0.4,0.9,0.6,1.5,0.6   C40.3,101.7,41.1,101.3,41.9,100.6z"/>
	<path fill="#D2232A" d="M56.9,89h3.2l-10.2,21.7h-3.2l4.8-10.4L46.1,89h3.2l3.9,8.1L56.9,89z"/>
	<path fill="#D2232A" d="M73.9,93v10.4h-2.8v-8c0-1.6-0.2-2.7-0.6-3.3c-0.4-0.6-1.2-0.9-2.2-0.9c-0.6,0-1.1,0.1-1.6,0.4   c-0.5,0.3-1.1,0.8-1.7,1.5v10.4H62V89h2.8v1.9c1.4-1.5,2.9-2.2,4.2-2.2c1.8,0,3.2,0.9,4.2,2.7c1.5-1.8,3.1-2.7,4.8-2.7   c1.4,0,2.6,0.5,3.5,1.5c0.9,1,1.4,2.6,1.4,4.7v8.5h-2.8v-8.6c0-1.2-0.2-2.1-0.7-2.8c-0.5-0.6-1.2-1-2.1-1   C76.1,91.1,75,91.7,73.9,93z"/>
	<path fill="#D2232A" d="M99,96.4H88.9c0.1,1.4,0.5,2.5,1.4,3.3c0.8,0.8,1.9,1.2,3.3,1.2c1.9,0,3.6-0.6,5.2-1.7v2.8   c-0.9,0.6-1.7,1-2.6,1.2c-0.9,0.2-1.9,0.4-3,0.4c-1.6,0-2.9-0.3-3.8-1c-1-0.7-1.8-1.5-2.3-2.7c-0.6-1.1-0.9-2.4-0.9-3.9   c0-2.2,0.6-4,1.9-5.4c1.2-1.4,2.8-2.1,4.8-2.1c1.9,0,3.4,0.7,4.6,2c1.1,1.3,1.7,3.1,1.7,5.4V96.4z M88.9,94.7h7.3   c-0.1-1.2-0.4-2-1-2.7c-0.6-0.6-1.4-0.9-2.5-0.9c-1,0-1.9,0.3-2.5,0.9C89.5,92.7,89.1,93.6,88.9,94.7z"/>
	<path fill="#D2232A" d="M104.9,89v1.8c1.3-1.4,2.7-2.1,4.3-2.1c0.9,0,1.7,0.2,2.5,0.7c0.8,0.5,1.4,1.1,1.8,1.9   c0.4,0.8,0.6,2.1,0.6,3.9v8.3h-2.8v-8.2c0-1.5-0.2-2.5-0.7-3.2c-0.5-0.6-1.2-0.9-2.3-0.9c-1.4,0-2.5,0.7-3.4,2v10.3H102V89H104.9z"/>
	<path fill="#D2232A" d="M116.1,91.3l5.3-5.3v3h4.6v2.6h-4.6v7.1c0,1.7,0.7,2.5,2,2.5c1,0,2.1-0.3,3.2-1v2.6   c-1.1,0.6-2.3,0.9-3.6,0.9c-1.3,0-2.4-0.4-3.2-1.1c-0.3-0.2-0.5-0.5-0.7-0.8c-0.2-0.3-0.3-0.7-0.4-1.1c-0.1-0.5-0.2-1.4-0.2-2.7   v-6.4h-2.5V91.3z"/>
	<path fill="#D2232A" d="M143.4,94.2l-2.4-1.4c-1.5-0.9-2.5-1.8-3.2-2.7c-0.6-0.9-0.9-1.9-0.9-3c0-1.7,0.6-3.1,1.8-4.2   c1.2-1.1,2.7-1.6,4.6-1.6c1.8,0,3.5,0.5,5,1.5v3.6c-1.6-1.5-3.3-2.2-5.1-2.2c-1,0-1.9,0.2-2.5,0.7c-0.7,0.5-1,1.1-1,1.8   c0,0.7,0.2,1.3,0.7,1.8c0.5,0.6,1.3,1.2,2.3,1.8l2.4,1.4c2.6,1.6,4,3.6,4,6.1c0,1.8-0.6,3.2-1.8,4.3c-1.2,1.1-2.7,1.6-4.6,1.6   c-2.1,0-4.1-0.7-5.9-2v-3.9c1.7,2.1,3.6,3.2,5.8,3.2c1,0,1.8-0.3,2.4-0.8c0.6-0.5,1-1.2,1-2.1C146.3,96.7,145.3,95.4,143.4,94.2z"/>
	<path fill="#D2232A" d="M159.2,89c2.2,0,4,0.7,5.5,2.1c1.4,1.4,2.2,3.2,2.2,5.3c0,2.1-0.7,3.8-2.2,5.2c-1.5,1.4-3.3,2.1-5.5,2.1   c-2.2,0-4-0.7-5.4-2.1c-1.4-1.4-2.2-3.1-2.2-5.2c0-2.1,0.7-3.9,2.2-5.3C155.1,89.7,157,89,159.2,89z M159,91.6   c-1.4,0-2.5,0.4-3.4,1.3s-1.3,2-1.3,3.4c0,1.4,0.4,2.5,1.3,3.4c0.9,0.9,2,1.3,3.5,1.3c1.4,0,2.5-0.4,3.4-1.3c0.9-0.9,1.3-2,1.3-3.4   c0-1.4-0.5-2.5-1.4-3.4C161.6,92,160.4,91.6,159,91.6z"/>
	<path fill="#D2232A" d="M170,81.6h2.8v21.8H170V81.6z"/>
	<path fill="#D2232A" d="M186.2,103.4v-1.8c-0.6,0.7-1.3,1.2-2.1,1.6c-0.8,0.4-1.6,0.6-2.3,0.6c-0.9,0-1.8-0.2-2.5-0.7   c-0.8-0.5-1.4-1.1-1.7-1.8c-0.4-0.8-0.6-2.1-0.6-3.9V89h2.8v8.2c0,1.5,0.2,2.6,0.7,3.2c0.4,0.6,1.2,0.9,2.3,0.9   c1.4,0,2.5-0.7,3.5-2V89h2.8v14.4H186.2z"/>
	<path fill="#D2232A" d="M191,91.3l5.3-5.3v3h4.6v2.6h-4.6v7.1c0,1.7,0.7,2.5,2,2.5c1,0,2.1-0.3,3.2-1v2.6c-1.1,0.6-2.3,0.9-3.6,0.9   c-1.3,0-2.4-0.4-3.2-1.1c-0.3-0.2-0.5-0.5-0.7-0.8s-0.3-0.7-0.4-1.1c-0.1-0.5-0.2-1.4-0.2-2.7v-6.4H191V91.3z"/>
	<path fill="#D2232A" d="M205.1,82.9c0.5,0,0.9,0.2,1.2,0.5c0.3,0.3,0.5,0.7,0.5,1.2c0,0.5-0.2,0.8-0.5,1.2   c-0.3,0.3-0.7,0.5-1.2,0.5c-0.4,0-0.8-0.2-1.1-0.5c-0.3-0.3-0.5-0.7-0.5-1.2c0-0.4,0.2-0.8,0.5-1.2   C204.3,83.1,204.7,82.9,205.1,82.9z M203.7,89h2.8v14.4h-2.8V89z"/>
	<path fill="#D2232A" d="M217.5,89c2.2,0,4,0.7,5.5,2.1c1.4,1.4,2.2,3.2,2.2,5.3c0,2.1-0.7,3.8-2.2,5.2c-1.5,1.4-3.3,2.1-5.5,2.1   c-2.2,0-4-0.7-5.4-2.1c-1.4-1.4-2.2-3.1-2.2-5.2c0-2.1,0.7-3.9,2.2-5.3C213.5,89.7,215.3,89,217.5,89z M217.4,91.6   c-1.4,0-2.5,0.4-3.4,1.3s-1.3,2-1.3,3.4c0,1.4,0.4,2.5,1.3,3.4c0.9,0.9,2,1.3,3.5,1.3c1.4,0,2.5-0.4,3.4-1.3c0.9-0.9,1.3-2,1.3-3.4   c0-1.4-0.5-2.5-1.4-3.4C219.9,92,218.8,91.6,217.4,91.6z"/>
	<path fill="#D2232A" d="M231.1,89v1.8c1.3-1.4,2.7-2.1,4.3-2.1c0.9,0,1.7,0.2,2.5,0.7c0.8,0.5,1.4,1.1,1.8,1.9   c0.4,0.8,0.6,2.1,0.6,3.9v8.3h-2.8v-8.2c0-1.5-0.2-2.5-0.7-3.2c-0.5-0.6-1.2-0.9-2.3-0.9c-1.4,0-2.5,0.7-3.4,2v10.3h-2.9V89H231.1z   "/>
	<path fill="#D2232A" d="M243.6,102.4v-3.1c0.8,0.6,1.6,1,2.5,1.4c0.8,0.3,1.6,0.5,2.1,0.5c0.6,0,1.1-0.1,1.5-0.4   c0.4-0.3,0.6-0.7,0.6-1.1c0-0.4-0.1-0.8-0.4-1.1c-0.3-0.3-0.9-0.7-1.8-1.2c-1.8-1-3-1.9-3.6-2.6c-0.6-0.7-0.9-1.5-0.9-2.4   c0-1.1,0.4-2,1.3-2.7c0.9-0.7,2-1.1,3.3-1.1c1.4,0,2.8,0.4,4.3,1.2v2.8c-1.7-1-3.1-1.6-4.2-1.6c-0.6,0-1,0.1-1.3,0.4   c-0.3,0.2-0.5,0.6-0.5,1c0,0.3,0.2,0.7,0.5,1c0.3,0.3,0.8,0.7,1.6,1.1l1,0.6c2.4,1.4,3.6,2.9,3.6,4.5c0,1.2-0.5,2.2-1.4,2.9   c-0.9,0.8-2.1,1.1-3.6,1.1c-0.9,0-1.6-0.1-2.3-0.3C245.4,103.2,244.6,102.9,243.6,102.4z"/>
</g>

	<metadata>
		<rdf:RDF xmlns:rdf="http://www.w3.org/1999/02/22-rdf-syntax-ns#" xmlns:rdfs="http://www.w3.org/2000/01/rdf-schema#" xmlns:dc="http://purl.org/dc/elements/1.1/">
			<rdf:Description about="https://iconscout.com/legal#licenses" dc:title="capitalq-payment solution" dc:description="capitalq-payment solution" dc:publisher="Iconscout" dc:date="2017-06-17" dc:format="image/svg+xml" dc:language="en">
				<dc:creator>
					<rdf:Bag>
						<rdf:li>Icon Mafia</rdf:li>
					</rdf:Bag>
				</dc:creator>
			</rdf:Description>
		</rdf:RDF>
    </metadata></svg>
