<?xml version="1.0" encoding="UTF-8"?>
<svg xmlns="http://www.w3.org/2000/svg" xmlns:xlink="http://www.w3.org/1999/xlink" version="1.1" id="Layer_1" x="0px" y="0px" viewBox="0 0 595.3 419.5" style="enable-background:new 0 0 595.3 419.5;" xml:space="preserve">
<style type="text/css">
	.st0{fill:#5190CC;}
	.st1{fill:#34B04A;}
	.st2{fill:#97A4A8;}
</style>
<path id="XMLID_85_" class="st0" d="M150.5,229c-0.5,0-0.9,0-1.4-0.2l-28.5-11.5c-2.9-1.2-4.7-3.9-4.7-7c0-3.1,1.9-5.8,4.7-6.9  l28.5-11.4c1.7-0.7,3.6,0.1,4.3,1.8c0.7,1.7-0.1,3.6-1.8,4.3l-28.5,11.4c-0.5,0.2-0.6,0.6-0.6,0.9c0,0.3,0.1,0.7,0.6,0.9l28.5,11.5  c1.7,0.7,2.5,2.6,1.8,4.3C152.9,228.1,151.7,228.9,150.5,229z" style="fill: #5190CC;"/>
<g id="XMLID_82_">
	<path id="XMLID_83_" class="st1" d="M184.3,208.8c-0.2,0-0.4,0-0.7,0c-1.8-0.3-3-2-2.7-3.8l4.9-30.3c0.1-0.5-0.2-0.8-0.4-1   c-0.2-0.2-0.6-0.3-1,0.1l-24.5,18.5c-1.4,1.1-3.5,0.8-4.6-0.6c-1.1-1.4-0.8-3.5,0.6-4.6l24.5-18.5c2.5-1.8,5.7-2,8.4-0.4   c2.6,1.6,4,4.6,3.5,7.6l-4.9,30.3C187.2,207.6,185.8,208.7,184.3,208.8z" style="fill: #34B04A;"/>
</g>
<g id="XMLID_80_">
	<path id="XMLID_81_" class="st2" d="M185.3,253.3c-1.7,0.1-3.4-0.4-4.8-1.5l-24.6-18.4c-1.4-1.1-1.7-3.1-0.7-4.6   c1.1-1.4,3.1-1.7,4.6-0.7l24.6,18.4c0.4,0.3,0.8,0.2,1,0.1c0.2-0.2,0.5-0.4,0.4-1l-5-30.3c-0.3-1.8,0.9-3.5,2.7-3.8   c1.8-0.3,3.5,0.9,3.8,2.7l5,30.3c0.5,3-0.9,6-3.5,7.6C187.8,252.9,186.6,253.3,185.3,253.3z" style="fill: #97A4A8;"/>
</g>
<g>
	<path id="XMLID_98_" class="st0" d="M262.8,238.4h-4.7l-9.8-30.4h-0.2l-9.8,30.4h-4.6l-16.9-45.1h9l10,29.3h0.2l9.4-29.3h5.5   l9.4,29.3h0.2l9.9-29.3h9L262.8,238.4z" style="fill: #5190CC;"/>
	<path id="XMLID_95_" class="st0" d="M288.5,219.5c2.1,8.7,9.1,12.3,14.8,12.3c6.3,0,10.8-3.7,12.9-7.6h8.5   c-4.3,11.6-14.7,15.3-21.7,15.3c-12.8,0-23-11-23-23.8c0-13.5,10.4-23.7,23.1-23.7c12.2,0,22.9,9.9,23,23.1c0,1.5-0.2,3.7-0.2,4.3   H288.5z M317.7,213c-0.4-6.6-6.4-13.2-14.6-13.2c-8.1,0-14.2,6.6-14.6,13.2H317.7z" style="fill: #5190CC;"/>
	<path id="XMLID_92_" class="st1" d="M332.6,193.3h7.7v6.9h0.2c4.1-5.9,10.3-8.1,16-8.1c15.3,0,23.4,12.3,23.4,24.3   c0,11.4-8.5,23.1-22.8,23.1c-9.4,0-14.2-4.8-15.9-7.7H341v21.6h-8.5V193.3z M355.9,199.8c-8.9,0-15.1,7.7-15.1,16   c0,9.1,6.8,16,15.3,16c8,0,15.2-6.3,15.2-15.9C371.4,207.9,365.1,199.8,355.9,199.8z" style="fill: #34B04A;"/>
	<path id="XMLID_89_" class="st1" d="M423.4,238.4v-7h-0.2c-3.3,5.5-9.2,8.1-15.3,8.1c-15.2,0-23.9-11.6-23.9-23.5   c0-11,7.7-23.9,23.9-23.9c6.3,0,12,2.6,15.3,7.6h0.2v-6.3h8.5v45.1H423.4z M407.9,199.8c-10.4,0-15.5,9-15.5,16.1   c0,8.1,6.4,15.9,15.4,15.9c8.9,0,15.7-7.2,15.7-15.9C423.6,206.3,416.7,199.8,407.9,199.8z" style="fill: #34B04A;"/>
	<path id="XMLID_87_" class="st1" d="M456.3,253.5h-8.8l6.6-16l-18-44.2h9.1l13.3,35l13.6-35h9.1L456.3,253.5z" style="fill: #34B04A;"/>
</g>

	<metadata>
		<rdf:RDF xmlns:rdf="http://www.w3.org/1999/02/22-rdf-syntax-ns#" xmlns:rdfs="http://www.w3.org/2000/01/rdf-schema#" xmlns:dc="http://purl.org/dc/elements/1.1/">
			<rdf:Description about="https://iconscout.com/legal#licenses" dc:title="wepay" dc:description="wepay" dc:publisher="Iconscout" dc:date="2017-06-17" dc:format="image/svg+xml" dc:language="en">
				<dc:creator>
					<rdf:Bag>
						<rdf:li>Icon Mafia</rdf:li>
					</rdf:Bag>
				</dc:creator>
			</rdf:Description>
		</rdf:RDF>
    </metadata></svg>
